<?xml version="1.0" encoding="UTF-8"?>
<!-- Generator: Adobe Illustrator 24.0.0, SVG Export Plug-In . SVG Version: 6.00 Build 0)  -->
<svg xmlns="http://www.w3.org/2000/svg" xmlns:xlink="http://www.w3.org/1999/xlink" version="1.1" id="Capa_1" x="0px" y="0px" viewBox="0 0 512 512" style="enable-background:new 0 0 512 512;" xml:space="preserve">
<style type="text/css">
	.st0{fill:#AD64B3;}
	.st1{fill:url(#SVGID_1_);}
</style>
<g>
	<g>
		<path class="st0" d="M311.67,279.02c0-0.01,0.01-0.01,0.01-0.01h20.89c3.68,0,7.03,0.39,10.06,1.16c3.03,0.77,5.61,1.97,7.74,3.58    c2.13,1.62,3.77,3.67,4.93,6.16c1.16,2.49,1.74,5.49,1.74,8.99c0,3.57-0.63,6.63-1.89,9.19c-1.26,2.56-3,4.64-5.22,6.26    c-2.23,1.62-4.87,2.81-7.93,3.58c-3.06,0.77-6.37,1.16-9.92,1.16h-10.82c-0.01,0-0.01,0.01-0.01,0.01v31.38    c0,0.01-0.01,0.01-0.01,0.01h-9.55c-0.01,0-0.01-0.01-0.01-0.01V279.02z M321.25,310.6c0,0.01,0.01,0.01,0.01,0.01h10.15    c2.32,0,4.47-0.22,6.43-0.66c1.97-0.44,3.66-1.11,5.08-2.02c1.42-0.91,2.52-2.1,3.29-3.58c0.77-1.48,1.16-3.3,1.16-5.45    c0-2.15-0.4-3.95-1.21-5.4c-0.81-1.45-1.9-2.63-3.29-3.53c-1.39-0.91-3.05-1.55-4.98-1.92c-1.93-0.37-4.03-0.56-6.29-0.56h-10.34    c-0.01,0-0.01,0.01-0.01,0.01V310.6z"></path>
		<path class="st0" d="M366.24,350.5h-10.62c-0.01,0-0.02-0.01-0.01-0.02l29.7-71.46c0,0,0.01-0.01,0.01-0.01h8.69    c0.01,0,0.01,0,0.01,0.01l29.4,71.46c0,0.01,0,0.02-0.01,0.02H412.6c-0.01,0-0.01,0-0.01-0.01l-6.96-17.55    c0,0-0.01-0.01-0.01-0.01h-32.49c-0.01,0-0.01,0-0.01,0.01l-6.86,17.55C366.25,350.5,366.24,350.5,366.24,350.5z M376.52,324.15    h25.6c0.01,0,0.02-0.01,0.01-0.02l-12.75-33.47c0-0.01-0.02-0.01-0.02,0l-12.85,33.47C376.51,324.14,376.51,324.15,376.52,324.15z    "></path>
		<path class="st0" d="M275.53,360.67c67.18-80.65-54.27-103.09,11.26-171.51c0.01-0.01,0-0.02-0.01-0.02h-16.09c0,0-0.01,0-0.01,0    c-65.57,68.43,55.89,90.87-11.27,171.51c-0.01,0.01,0,0.02,0.01,0.02L275.53,360.67C275.52,360.68,275.53,360.68,275.53,360.67z"></path>
		<path class="st0" d="M279.66,185.37l8.38-12.69c0,0,0,0,0,0l2.28-6.94c0,0,0,0,0,0c9.92-17.58,48.09-67.3,80.99-111.02    c0.01-0.01,0.02,0,0.02,0.01c-30.48,46.22-64.47,98.23-76.77,113.65c0,0,0,0,0,0l-5.66,4.83c0,0,0,0,0,0L279.66,185.37z"></path>
		<g>
			<path class="st0" d="M77.94,190.19c0-0.01,0.01-0.01,0.01-0.01h20.89c3.68,0,7.03,0.39,10.06,1.16c3.03,0.77,5.61,1.97,7.74,3.58     c2.13,1.62,3.77,3.67,4.93,6.16c1.16,2.49,1.74,5.49,1.74,8.99c0,3.57-0.63,6.63-1.89,9.19c-1.26,2.56-3,4.64-5.22,6.26     c-2.23,1.62-4.87,2.81-7.93,3.58c-3.06,0.77-6.37,1.16-9.92,1.16H87.53c-0.01,0-0.01,0.01-0.01,0.01v31.38     c0,0.01-0.01,0.01-0.01,0.01h-9.55c-0.01,0-0.01-0.01-0.01-0.01V190.19z M87.52,221.76c0,0.01,0.01,0.01,0.01,0.01h10.15     c2.32,0,4.47-0.22,6.43-0.66c1.97-0.44,3.66-1.11,5.08-2.02c1.42-0.91,2.52-2.1,3.29-3.58c0.77-1.48,1.16-3.3,1.16-5.45     c0-2.15-0.4-3.95-1.21-5.4c-0.81-1.45-1.9-2.63-3.29-3.53c-1.39-0.91-3.05-1.55-4.98-1.92c-1.93-0.37-4.03-0.56-6.29-0.56H87.53     c-0.01,0-0.01,0.01-0.01,0.01V221.76z"></path>
			<path class="st0" d="M161.64,263.48c-4.52,0-8.45-0.79-11.8-2.37c-3.36-1.58-6.13-3.69-8.32-6.31c-2.19-2.63-3.82-5.64-4.89-9.04     c-1.06-3.4-1.6-6.92-1.6-10.55v-45.02c0-0.01,0.01-0.01,0.01-0.01h9.55c0.01,0,0.01,0.01,0.01,0.01v44.42     c0,2.42,0.29,4.83,0.87,7.22c0.58,2.39,1.53,4.53,2.85,6.41c1.32,1.89,3.06,3.4,5.22,4.54c2.16,1.15,4.85,1.72,8.08,1.72     c3.16,0,5.84-0.57,8.03-1.72c2.19-1.14,3.95-2.66,5.27-4.54c1.32-1.88,2.27-4.02,2.85-6.41c0.58-2.39,0.87-4.8,0.87-7.22v-44.42     c0-0.01,0.01-0.01,0.01-0.01h9.55c0.01,0,0.01,0.01,0.01,0.01v45.02c0,3.64-0.53,7.15-1.6,10.55c-1.06,3.4-2.7,6.41-4.89,9.04     c-2.19,2.63-4.97,4.73-8.32,6.31C170.09,262.69,166.15,263.48,161.64,263.48z"></path>
			<path class="st0" d="M214,252.78h30.55c0.01,0,0.01,0.01,0.01,0.01v8.86c0,0.01-0.01,0.01-0.01,0.01h-40.13     c-0.01,0-0.01-0.01-0.01-0.01v-71.46c0-0.01,0.01-0.01,0.01-0.01h9.55c0.01,0,0.01,0.01,0.01,0.01v62.58     C213.98,252.77,213.99,252.78,214,252.78z"></path>
			<path class="st0" d="M318.49,252.78h35.78c0.01,0,0.01,0.01,0.01,0.01v8.86c0,0.01-0.01,0.01-0.01,0.01h-45.36     c-0.01,0-0.01-0.01-0.01-0.01v-71.46c0-0.01,0.01-0.01,0.01-0.01h43.9c0.01,0,0.01,0.01,0.01,0.01v8.76     c0,0.01-0.01,0.01-0.01,0.01h-34.32c-0.01,0-0.01,0.01-0.01,0.01v21.38c0,0.01,0.01,0.01,0.01,0.01h32.29     c0.01,0,0.01,0.01,0.01,0.01v8.56c0,0.01-0.01,0.01-0.01,0.01h-32.29c-0.01,0-0.01,0.01-0.01,0.01v23.8     C318.48,252.77,318.49,252.78,318.49,252.78z"></path>
		</g>
	</g>
	<g>
		<g>
			<path class="st0" d="M100.46,172.42h0.12l12.66-33.15h9.33v43.14h-6v-36.07h-0.12l-14.23,36.07H98.4l-14.17-36.07H84.1v36.07     h-5.81v-43.14h9.33L100.46,172.42z"></path>
			<path class="st0" d="M138.97,182.41h-6v-43.14h6V182.41z"></path>
			<path class="st0" d="M186.15,175.71c-1.7,2.32-3.9,4.19-6.6,5.64c-2.71,1.44-5.96,2.16-9.75,2.16c-3.27,0-6.29-0.56-9.05-1.68     c-2.77-1.12-5.15-2.68-7.15-4.69c-2-2.01-3.56-4.41-4.69-7.19c-1.13-2.78-1.7-5.84-1.7-9.17c0-3.37,0.58-6.45,1.73-9.23     c1.15-2.78,2.75-5.16,4.78-7.13c2.04-1.97,4.45-3.5,7.24-4.6c2.79-1.1,5.81-1.64,9.08-1.64c1.45,0,2.93,0.14,4.42,0.43     c1.49,0.28,2.93,0.71,4.3,1.28c1.37,0.57,2.62,1.27,3.76,2.1c1.13,0.83,2.1,1.8,2.91,2.89l-4.72,3.66     c-1.05-1.46-2.53-2.67-4.45-3.63c-1.92-0.95-3.99-1.43-6.21-1.43c-2.5,0-4.75,0.46-6.75,1.37c-2,0.91-3.7,2.16-5.12,3.75     c-1.41,1.58-2.5,3.42-3.27,5.51c-0.77,2.09-1.15,4.32-1.15,6.67c0,2.44,0.37,4.71,1.12,6.82c0.75,2.11,1.82,3.95,3.21,5.51     c1.39,1.56,3.09,2.79,5.09,3.69c2,0.89,4.23,1.34,6.69,1.34c2.42,0,4.62-0.49,6.6-1.46c1.98-0.97,3.61-2.4,4.91-4.26     L186.15,175.71z"></path>
			<path class="st0" d="M198.27,182.41h-6v-43.14h13.75c2.06,0,4.02,0.21,5.87,0.64c1.86,0.43,3.48,1.11,4.88,2.04     c1.39,0.93,2.49,2.16,3.3,3.69c0.81,1.52,1.21,3.38,1.21,5.58c0,3.17-0.97,5.73-2.91,7.68c-1.94,1.95-4.44,3.19-7.51,3.72     l11.99,19.8h-7.27l-10.9-19.19h-6.42V182.41z M198.27,158.16h6.9c1.41,0,2.73-0.12,3.94-0.37c1.21-0.24,2.27-0.64,3.18-1.19     c0.91-0.55,1.62-1.26,2.15-2.13c0.52-0.87,0.79-1.96,0.79-3.26c0-1.3-0.26-2.39-0.79-3.26c-0.53-0.87-1.22-1.57-2.09-2.1     c-0.87-0.53-1.89-0.9-3.06-1.13c-1.17-0.22-2.4-0.34-3.69-0.34h-7.33V158.16z"></path>
			<path class="st0" d="M272.7,160.78c0,3.33-0.58,6.39-1.73,9.17c-1.15,2.78-2.74,5.18-4.75,7.19c-2.02,2.01-4.42,3.58-7.21,4.69     c-2.79,1.12-5.81,1.68-9.08,1.68c-3.27,0-6.29-0.56-9.05-1.68c-2.77-1.12-5.16-2.68-7.18-4.69c-2.02-2.01-3.59-4.41-4.72-7.19     c-1.13-2.78-1.7-5.84-1.7-9.17c0-3.37,0.56-6.45,1.7-9.23c1.13-2.78,2.7-5.16,4.72-7.13c2.02-1.97,4.41-3.5,7.18-4.6     c2.77-1.1,5.78-1.64,9.05-1.64c3.27,0,6.3,0.55,9.08,1.64c2.79,1.1,5.19,2.63,7.21,4.6c2.02,1.97,3.6,4.35,4.75,7.13     C272.12,154.34,272.7,157.41,272.7,160.78z M266.22,160.78c0-2.36-0.38-4.58-1.15-6.67c-0.77-2.09-1.86-3.93-3.27-5.51     c-1.41-1.58-3.12-2.83-5.12-3.75c-2-0.91-4.25-1.37-6.75-1.37c-2.46,0-4.69,0.46-6.69,1.37c-2,0.91-3.69,2.16-5.09,3.75     c-1.39,1.58-2.47,3.42-3.24,5.51c-0.77,2.09-1.15,4.32-1.15,6.67c0,2.4,0.38,4.65,1.15,6.76c0.77,2.11,1.86,3.95,3.27,5.51     c1.41,1.56,3.11,2.79,5.09,3.69c1.98,0.89,4.2,1.34,6.66,1.34c2.46,0,4.7-0.45,6.72-1.34c2.02-0.89,3.73-2.12,5.15-3.69     c1.41-1.56,2.5-3.4,3.27-5.51C265.84,165.44,266.22,163.18,266.22,160.78z"></path>
		</g>
	</g>
	<g>
		<linearGradient id="SVGID_1_" gradientUnits="userSpaceOnUse" x1="394.7021" y1="412.5179" x2="157.8718" y2="68.9601">
			<stop offset="0.2325" style="stop-color:#AD64B3"></stop>
			<stop offset="0.8202" style="stop-color:#E1CECC"></stop>
		</linearGradient>
		<path class="st1" d="M31.84,160.88c-3.3,19.82-4.69,39.93-3.39,59.87l0.49,7.47l0.83,7.44l0.41,3.72c0.14,1.24,0.38,2.46,0.56,3.7    l1.17,7.38c0.41,2.46,0.99,4.88,1.47,7.32c0.53,2.43,0.94,4.89,1.62,7.29l1.86,7.23l0.46,1.81l0.55,1.78l1.1,3.56    c2.79,9.54,6.41,18.81,10.3,27.92l3.14,6.74c0.54,1.12,1.01,2.26,1.6,3.36l1.72,3.29c1.16,2.19,2.27,4.4,3.46,6.57l3.75,6.41    c0.63,1.06,1.23,2.15,1.89,3.2l2.02,3.11l4.03,6.23l4.3,6.04l2.15,3.02l2.29,2.92l4.57,5.83l4.84,5.6l2.42,2.8l2.55,2.68l5.1,5.36    l5.35,5.11l2.67,2.55l2.79,2.43l5.58,4.84l5.81,4.57l2.9,2.28c0.98,0.74,2,1.44,3,2.16l6.01,4.29c2.05,1.36,4.14,2.66,6.2,4    l3.1,1.99c1.04,0.66,2.13,1.23,3.19,1.85l6.4,3.66c2.16,1.17,4.38,2.24,6.56,3.36c4.33,2.33,8.9,4.16,13.37,6.19    c2.25,0.99,4.57,1.79,6.86,2.69c2.3,0.86,4.56,1.83,6.91,2.53l7,2.28l1.75,0.57l1.78,0.48l3.56,0.95    c9.45,2.67,19.13,4.39,28.82,5.89l7.31,0.79l3.66,0.4c1.22,0.1,2.45,0.15,3.67,0.22l7.34,0.41c2.45,0.08,4.9,0.03,7.35,0.06    c19.61,0.11,39.17-2.85,58.05-8.04c37.75-10.55,72.63-31.27,100.08-59.4c13.92-13.88,25.8-29.76,35.82-46.7l0.95-1.58l0.88-1.62    l1.76-3.25l1.76-3.25c0.59-1.08,1.18-2.16,1.69-3.28c2.11-4.45,4.37-8.83,6.21-13.41c0.96-2.27,1.96-4.52,2.89-6.81l2.57-6.93    l1.29-3.47c0.39-1.17,0.75-2.35,1.13-3.52l2.24-7.06c11.02-37.92,13.3-78.52,5.92-117.6c-3.52-19.57-9.76-38.65-17.95-56.85    l-3.12-6.82c-1.12-2.23-2.31-4.43-3.46-6.65l-1.74-3.32c-0.57-1.11-1.15-2.22-1.81-3.28l-3.83-6.46l-1.9-3.24    c-0.67-1.06-1.38-2.09-2.06-3.14l-4.15-6.27l-1.04-1.57l-1.12-1.51l-2.25-3.02l-4.5-6.05c26.53,30.22,45.35,67.44,54.22,107.09    c4.37,19.83,6.33,40.23,5.85,60.6l-0.08,3.82c-0.04,1.27-0.02,2.55-0.15,3.82l-0.6,7.62c-0.29,5.1-1.1,10.13-1.78,15.19    l-0.52,3.79c-0.17,1.26-0.46,2.51-0.68,3.76l-1.43,7.52l-0.37,1.88l-0.45,1.86l-0.9,3.72c-0.62,2.48-1.15,4.98-1.85,7.43    c-5.45,19.69-13.12,38.84-23.28,56.64c-10.19,17.76-22.36,34.48-36.72,49.17c-28.46,29.63-64.97,51.46-104.57,62.71    c-19.86,5.38-40.42,8.38-61.01,8.19c-2.57-0.04-5.15,0-7.72-0.1l-7.7-0.46c-1.28-0.09-2.57-0.14-3.85-0.25l-3.83-0.43l-7.66-0.87    c-10.15-1.61-20.29-3.44-30.14-6.39c-39.64-11.03-75.87-33.26-104.13-62.82c-28.21-29.64-48.75-66.32-59.17-105.59l-0.98-3.68    l-0.49-1.84l-0.41-1.86l-1.62-7.44c-0.59-2.47-0.92-4.99-1.37-7.48c-0.4-2.5-0.89-4.99-1.21-7.5l-0.91-7.54    c-0.14-1.26-0.33-2.51-0.43-3.77l-0.27-3.79l-0.54-7.57l-0.16-7.58l-0.08-3.79c-0.03-1.26,0.05-2.53,0.07-3.79l0.21-7.57    c0.01-1.26,0.12-2.52,0.22-3.78l0.29-3.77l0.29-3.77c0.1-1.26,0.17-2.51,0.36-3.76l0.97-7.5c0.17-1.25,0.3-2.5,0.51-3.74    l0.67-3.72l1.33-7.43C30.75,165.78,31.32,163.33,31.84,160.88z"></path>
	</g>
	<g>
		<path class="st0" d="M79.48,125.44v-9.02h1.38l3.94,6.58h-0.72l3.88-6.58h1.38l0.03,9.02h-1.61v-6.53h0.32l-3.27,5.52h-0.76    l-3.35-5.52h0.39v6.53H79.48z"></path>
		<path class="st0" d="M91.78,125.44v-9.02h1.68v9.02H91.78z"></path>
		<path class="st0" d="M100.07,125.57c-0.7,0-1.34-0.11-1.92-0.34c-0.58-0.23-1.09-0.55-1.53-0.97c-0.43-0.42-0.77-0.91-1.01-1.47    c-0.24-0.56-0.36-1.18-0.36-1.86c0-0.68,0.12-1.3,0.36-1.86c0.24-0.56,0.58-1.05,1.02-1.47c0.44-0.42,0.95-0.75,1.53-0.97    c0.58-0.23,1.22-0.34,1.92-0.34c0.74,0,1.41,0.13,2.02,0.38c0.61,0.25,1.13,0.63,1.55,1.13l-1.08,1.02    c-0.34-0.35-0.7-0.62-1.11-0.79c-0.4-0.18-0.84-0.26-1.3-0.26c-0.47,0-0.9,0.08-1.29,0.23c-0.39,0.15-0.73,0.37-1.02,0.66    c-0.29,0.28-0.51,0.62-0.68,1.01c-0.16,0.39-0.24,0.81-0.24,1.28c0,0.46,0.08,0.89,0.24,1.28c0.16,0.39,0.39,0.72,0.68,1.01    c0.29,0.28,0.63,0.5,1.02,0.66c0.39,0.15,0.82,0.23,1.29,0.23c0.46,0,0.9-0.09,1.3-0.26c0.4-0.18,0.77-0.44,1.11-0.81l1.08,1.02    c-0.42,0.5-0.94,0.88-1.55,1.13C101.5,125.44,100.82,125.57,100.07,125.57z"></path>
		<path class="st0" d="M105.26,125.44v-9.02h3.71c0.8,0,1.48,0.13,2.06,0.38c0.57,0.25,1.01,0.62,1.32,1.1    c0.31,0.48,0.46,1.06,0.46,1.73c0,0.66-0.15,1.23-0.46,1.7c-0.31,0.47-0.75,0.84-1.32,1.09c-0.57,0.26-1.26,0.39-2.06,0.39h-2.77    l0.73-0.75v3.38H105.26z M106.94,122.25l-0.73-0.81h2.69c0.74,0,1.3-0.16,1.67-0.48c0.37-0.32,0.56-0.76,0.56-1.33    s-0.19-1.01-0.56-1.32c-0.37-0.31-0.93-0.47-1.67-0.47h-2.69l0.73-0.82V122.25z M111.16,125.44l-2.28-3.27h1.79l2.29,3.27H111.16z    "></path>
		<path class="st0" d="M118.91,125.57c-0.7,0-1.34-0.12-1.94-0.35c-0.6-0.23-1.11-0.56-1.55-0.98c-0.44-0.42-0.78-0.91-1.02-1.48    c-0.24-0.56-0.36-1.17-0.36-1.84c0-0.67,0.12-1.29,0.36-1.85c0.24-0.56,0.58-1.05,1.02-1.47c0.44-0.42,0.95-0.74,1.55-0.97    s1.24-0.35,1.95-0.35c0.7,0,1.34,0.11,1.93,0.34c0.59,0.23,1.11,0.55,1.54,0.97c0.43,0.42,0.77,0.91,1.01,1.48    c0.24,0.57,0.36,1.19,0.36,1.86c0,0.67-0.12,1.29-0.36,1.85c-0.24,0.56-0.58,1.05-1.01,1.48c-0.43,0.42-0.95,0.74-1.54,0.97    C120.25,125.46,119.6,125.57,118.91,125.57z M118.91,124.1c0.46,0,0.87-0.08,1.26-0.23c0.38-0.15,0.72-0.37,1-0.66    c0.28-0.28,0.5-0.62,0.66-1.01c0.16-0.39,0.24-0.81,0.24-1.28c0-0.46-0.08-0.89-0.23-1.28c-0.15-0.39-0.38-0.72-0.66-1.01    c-0.29-0.28-0.62-0.5-1.01-0.66c-0.38-0.15-0.8-0.23-1.26-0.23c-0.46,0-0.88,0.08-1.27,0.23c-0.39,0.15-0.73,0.38-1.01,0.66    c-0.28,0.29-0.51,0.62-0.67,1.01c-0.16,0.38-0.24,0.81-0.24,1.27c0,0.46,0.08,0.88,0.24,1.26c0.16,0.39,0.39,0.72,0.67,1.01    c0.28,0.29,0.62,0.51,1.01,0.66C118.03,124.03,118.45,124.1,118.91,124.1z"></path>
		<path class="st0" d="M125.53,125.44v-9.02h3.71c0.8,0,1.48,0.13,2.06,0.38c0.57,0.25,1.01,0.62,1.32,1.1    c0.31,0.48,0.46,1.06,0.46,1.73c0,0.66-0.15,1.23-0.46,1.71c-0.31,0.48-0.75,0.85-1.32,1.11c-0.57,0.26-1.26,0.39-2.06,0.39h-2.77    l0.73-0.77v3.38H125.53z M127.21,122.25l-0.73-0.83h2.69c0.74,0,1.3-0.16,1.67-0.47c0.37-0.31,0.56-0.75,0.56-1.32    s-0.19-1.01-0.56-1.32c-0.37-0.31-0.93-0.47-1.67-0.47h-2.69l0.73-0.82V122.25z"></path>
		<path class="st0" d="M138.62,125.57c-1.23,0-2.19-0.35-2.89-1.04c-0.7-0.7-1.05-1.71-1.05-3.03v-5.08h1.68v5.03    c0,0.93,0.2,1.6,0.6,2.02c0.4,0.42,0.96,0.63,1.69,0.63s1.29-0.21,1.69-0.63c0.4-0.42,0.59-1.09,0.59-2.02v-5.03h1.65v5.08    c0,1.32-0.35,2.33-1.05,3.03C140.83,125.22,139.86,125.57,138.62,125.57z"></path>
		<path class="st0" d="M144.93,125.44v-9.02h1.38l5.66,6.96h-0.68v-6.96h1.65v9.02h-1.38l-5.64-6.96h0.68v6.96H144.93z"></path>
		<path class="st0" d="M157.19,125.44v-7.6h-2.99v-1.42h7.65v1.42h-2.99v7.6H157.19z"></path>
		<path class="st0" d="M166.82,125.57c-1.23,0-2.19-0.35-2.89-1.04c-0.7-0.7-1.05-1.71-1.05-3.03v-5.08h1.68v5.03    c0,0.93,0.2,1.6,0.6,2.02c0.4,0.42,0.96,0.63,1.69,0.63s1.29-0.21,1.69-0.63c0.4-0.42,0.59-1.09,0.59-2.02v-5.03h1.65v5.08    c0,1.32-0.35,2.33-1.05,3.03C169.02,125.22,168.06,125.57,166.82,125.57z"></path>
		<path class="st0" d="M173.12,125.44v-9.02h3.71c0.8,0,1.48,0.13,2.06,0.38c0.57,0.25,1.01,0.62,1.32,1.1    c0.31,0.48,0.46,1.06,0.46,1.73c0,0.66-0.15,1.23-0.46,1.7c-0.31,0.47-0.75,0.84-1.32,1.09c-0.57,0.26-1.26,0.39-2.06,0.39h-2.77    l0.73-0.75v3.38H173.12z M174.8,122.25l-0.73-0.81h2.69c0.74,0,1.3-0.16,1.67-0.48c0.37-0.32,0.56-0.76,0.56-1.33    s-0.19-1.01-0.56-1.32c-0.37-0.31-0.93-0.47-1.67-0.47h-2.69l0.73-0.82V122.25z M179.02,125.44l-2.28-3.27h1.79l2.29,3.27H179.02z    "></path>
		<path class="st0" d="M181.26,125.44l4.06-9.02h1.65l4.07,9.02h-1.77l-3.48-8.13h0.67l-3.49,8.13H181.26z M183.13,123.36l0.46-1.31    h4.86l0.45,1.31H183.13z"></path>
		<path class="st0" d="M195.75,125.44v-9.02h4.24c1.07,0,1.89,0.21,2.46,0.64c0.57,0.43,0.85,0.99,0.85,1.71    c0,0.48-0.11,0.89-0.34,1.23c-0.22,0.34-0.52,0.6-0.9,0.79c-0.37,0.18-0.78,0.28-1.22,0.28l0.23-0.46c0.51,0,0.96,0.09,1.37,0.28    c0.4,0.18,0.72,0.45,0.95,0.81s0.35,0.79,0.35,1.31c0,0.77-0.29,1.37-0.88,1.8c-0.59,0.43-1.46,0.64-2.62,0.64H195.75z     M197.42,124.13h2.72c0.62,0,1.1-0.1,1.43-0.31c0.34-0.21,0.5-0.54,0.5-0.99c0-0.45-0.17-0.78-0.5-0.99    c-0.34-0.21-0.81-0.32-1.43-0.32h-2.85v-1.3h2.5c0.57,0,1.02-0.1,1.34-0.31c0.32-0.21,0.48-0.52,0.48-0.93    c0-0.42-0.16-0.73-0.48-0.94c-0.32-0.21-0.77-0.31-1.34-0.31h-2.37V124.13z"></path>
		<path class="st0" d="M205.55,125.44v-9.02h3.71c0.8,0,1.48,0.13,2.06,0.38c0.57,0.25,1.01,0.62,1.32,1.1    c0.31,0.48,0.46,1.06,0.46,1.73c0,0.66-0.15,1.23-0.46,1.7c-0.31,0.47-0.75,0.84-1.32,1.09c-0.57,0.26-1.26,0.39-2.06,0.39h-2.77    l0.73-0.75v3.38H205.55z M207.23,122.25l-0.73-0.81h2.69c0.74,0,1.3-0.16,1.67-0.48c0.37-0.32,0.56-0.76,0.56-1.33    s-0.19-1.01-0.56-1.32c-0.37-0.31-0.93-0.47-1.67-0.47h-2.69l0.73-0.82V122.25z M211.46,125.44l-2.28-3.27h1.79l2.29,3.27H211.46z    "></path>
		<path class="st0" d="M213.7,125.44l4.06-9.02h1.65l4.07,9.02h-1.77l-3.48-8.13h0.67l-3.49,8.13H213.7z M215.57,123.36l0.46-1.31    h4.86l0.45,1.31H215.57z"></path>
		<path class="st0" d="M227.42,125.57c-0.7,0-1.38-0.1-2.02-0.3c-0.64-0.2-1.15-0.46-1.54-0.78l0.58-1.3    c0.36,0.28,0.81,0.52,1.34,0.71c0.53,0.19,1.08,0.28,1.64,0.28c0.47,0,0.85-0.05,1.15-0.15c0.29-0.1,0.51-0.24,0.64-0.42    c0.14-0.18,0.21-0.38,0.21-0.6c0-0.27-0.1-0.5-0.3-0.66s-0.45-0.3-0.77-0.4c-0.31-0.1-0.66-0.19-1.04-0.27    c-0.38-0.08-0.76-0.18-1.15-0.3s-0.73-0.27-1.05-0.46c-0.32-0.18-0.57-0.43-0.77-0.74c-0.19-0.31-0.29-0.7-0.29-1.19    c0-0.49,0.13-0.94,0.39-1.35c0.26-0.41,0.66-0.73,1.2-0.98c0.54-0.24,1.22-0.37,2.04-0.37c0.54,0,1.08,0.07,1.61,0.21    c0.53,0.14,1,0.33,1.39,0.59l-0.53,1.3c-0.4-0.24-0.82-0.42-1.25-0.53c-0.43-0.12-0.84-0.17-1.24-0.17    c-0.46,0-0.83,0.06-1.12,0.17c-0.29,0.11-0.5,0.26-0.64,0.44c-0.13,0.18-0.2,0.39-0.2,0.61c0,0.28,0.1,0.5,0.29,0.66    c0.19,0.17,0.45,0.3,0.76,0.39c0.31,0.09,0.66,0.18,1.05,0.27c0.39,0.09,0.77,0.19,1.15,0.3c0.38,0.12,0.73,0.27,1.04,0.45    c0.32,0.18,0.57,0.43,0.77,0.73c0.19,0.31,0.29,0.69,0.29,1.17c0,0.48-0.13,0.93-0.39,1.33c-0.26,0.41-0.66,0.73-1.2,0.98    C228.93,125.45,228.25,125.57,227.42,125.57z"></path>
		<path class="st0" d="M232.73,125.44v-9.02h1.68v9.02H232.73z"></path>
		<path class="st0" d="M236.84,125.44v-9.02h1.68v7.6h4.72v1.42H236.84z"></path>
		<path class="st0" d="M246.24,124.03h5.09v1.42h-6.77v-9.02h6.58v1.42h-4.91V124.03z M246.11,120.17h4.48v1.38h-4.48V120.17z"></path>
		<path class="st0" d="M253.19,125.44v-9.02h1.38l5.66,6.96h-0.68v-6.96h1.65v9.02h-1.38l-5.64-6.96h0.68v6.96H253.19z     M258.12,115.7c-0.21,0-0.4-0.05-0.57-0.14c-0.16-0.09-0.31-0.19-0.44-0.3c-0.13-0.11-0.26-0.21-0.38-0.3s-0.24-0.13-0.36-0.13    c-0.18,0-0.33,0.07-0.44,0.21c-0.11,0.14-0.18,0.33-0.19,0.57h-0.86c0.02-0.52,0.15-0.94,0.4-1.25c0.25-0.31,0.58-0.46,0.99-0.46    c0.21,0,0.41,0.04,0.57,0.12c0.17,0.08,0.32,0.18,0.45,0.3c0.13,0.12,0.26,0.22,0.37,0.3c0.12,0.08,0.23,0.12,0.35,0.12    c0.18,0,0.33-0.06,0.44-0.19c0.12-0.13,0.18-0.31,0.19-0.54h0.86c-0.01,0.51-0.14,0.92-0.39,1.23    C258.86,115.55,258.53,115.7,258.12,115.7z"></path>
		<path class="st0" d="M262.36,125.44l4.06-9.02h1.65l4.07,9.02h-1.77l-3.48-8.13h0.67l-3.49,8.13H262.36z M264.22,123.36l0.46-1.31    h4.86l0.45,1.31H264.22z"></path>
	</g>
</g>
</svg>
