<?xml version="1.0" encoding="utf-8"?>
<!-- Generator: Adobe Illustrator 24.0.0, SVG Export Plug-In . SVG Version: 6.00 Build 0)  -->
<svg version="1.1" id="Capa_1" xmlns="http://www.w3.org/2000/svg" xmlns:xlink="http://www.w3.org/1999/xlink" x="0px" y="0px"
	 viewBox="0 0 512 512" style="enable-background:new 0 0 512 512;" xml:space="preserve">
<style type="text/css">
	.st0{stroke:#AD64B3;stroke-width:1.8927;stroke-miterlimit:10;}
	.st1{fill:#AD64B3;}
	.st2{fill:url(#SVGID_1_);}
</style>
<path class="st0" d="M256,498.3L256,498.3C122.2,498.3,13.7,389.8,13.7,256v0C13.7,122.2,122.2,13.7,256,13.7h0
	c133.8,0,242.3,108.5,242.3,242.3v0C498.3,389.8,389.8,498.3,256,498.3z"/>
<g>
	<g>
		<path class="st1" d="M305.9,308.6C305.9,308.5,306,308.5,305.9,308.6l18.7,0c3.3,0,6.3,0.3,9,1s5,1.8,6.9,3.2
			c1.9,1.4,3.4,3.3,4.4,5.5s1.6,4.9,1.6,8c0,3.2-0.6,5.9-1.7,8.2s-2.7,4.2-4.7,5.6c-2,1.4-4.4,2.5-7.1,3.2s-5.7,1-8.9,1h-9.7
			c0,0,0,0,0,0v28.1c0,0,0,0,0,0H306c0,0,0,0,0,0L305.9,308.6L305.9,308.6z M314.5,336.8C314.5,336.8,314.5,336.8,314.5,336.8l9.1,0
			c2.1,0,4-0.2,5.8-0.6c1.8-0.4,3.3-1,4.5-1.8c1.3-0.8,2.3-1.9,2.9-3.2c0.7-1.3,1-3,1-4.9c0-1.9-0.4-3.5-1.1-4.8
			c-0.7-1.3-1.7-2.4-2.9-3.2c-1.2-0.8-2.7-1.4-4.5-1.7c-1.7-0.3-3.6-0.5-5.6-0.5h-9.2c0,0,0,0,0,0L314.5,336.8L314.5,336.8z"/>
		<path class="st1" d="M354.8,372.5h-9.5c0,0,0,0,0,0l26.6-63.9l0,0h7.8c0,0,0,0,0,0l26.3,63.9c0,0,0,0,0,0h-9.7c0,0,0,0,0,0
			l-6.2-15.7l0,0h-29.1c0,0,0,0,0,0L354.8,372.5C354.8,372.5,354.8,372.5,354.8,372.5z M364,348.9h22.9c0,0,0,0,0,0L375.5,319
			c0,0,0,0,0,0L364,348.9C363.9,348.9,363.9,348.9,364,348.9z"/>
		<path class="st1" d="M273.6,381.6c60.1-72.1-48.5-92.2,10.1-153.4c0,0,0,0,0,0h-14.4h0c-58.6,61.2,50,81.3-10.1,153.4c0,0,0,0,0,0
			H273.6C273.6,381.6,273.6,381.6,273.6,381.6z"/>
		<path class="st1" d="M277.3,224.8l7.5-11.4l0,0l2-6.2l0,0c8.9-15.7,43-60.2,72.4-99.3c0,0,0,0,0,0
			c-27.3,41.3-57.7,87.9-68.7,101.7l0,0l-5.1,4.3l0,0L277.3,224.8z"/>
		<g>
			<path class="st1" d="M96.9,229.1C96.9,229.1,96.9,229.1,96.9,229.1l18.7,0c3.3,0,6.3,0.3,9,1c2.7,0.7,5,1.8,6.9,3.2
				c1.9,1.4,3.4,3.3,4.4,5.5c1,2.2,1.6,4.9,1.6,8c0,3.2-0.6,5.9-1.7,8.2c-1.1,2.3-2.7,4.2-4.7,5.6c-2,1.4-4.4,2.5-7.1,3.2
				c-2.7,0.7-5.7,1-8.9,1h-9.7c0,0,0,0,0,0V293c0,0,0,0,0,0h-8.5c0,0,0,0,0,0L96.9,229.1L96.9,229.1z M105.5,257.3
				C105.5,257.4,105.5,257.4,105.5,257.3l9.1,0c2.1,0,4-0.2,5.8-0.6c1.8-0.4,3.3-1,4.5-1.8c1.3-0.8,2.3-1.9,2.9-3.2
				c0.7-1.3,1-3,1-4.9s-0.4-3.5-1.1-4.8s-1.7-2.4-2.9-3.2c-1.2-0.8-2.7-1.4-4.5-1.7c-1.7-0.3-3.6-0.5-5.6-0.5h-9.2c0,0,0,0,0,0
				V257.3z"/>
			<path class="st1" d="M171.8,294.7c-4,0-7.6-0.7-10.6-2.1c-3-1.4-5.5-3.3-7.4-5.6c-2-2.4-3.4-5-4.4-8.1c-0.9-3-1.4-6.2-1.4-9.4
				v-40.3c0,0,0,0,0,0h8.5c0,0,0,0,0,0v39.7c0,2.2,0.3,4.3,0.8,6.5c0.5,2.1,1.4,4.1,2.5,5.7c1.2,1.7,2.7,3,4.7,4.1
				c1.9,1,4.3,1.5,7.2,1.5c2.8,0,5.2-0.5,7.2-1.5c2-1,3.5-2.4,4.7-4.1c1.2-1.7,2-3.6,2.5-5.7c0.5-2.1,0.8-4.3,0.8-6.5v-39.7
				c0,0,0,0,0,0h8.5c0,0,0,0,0,0v40.3c0,3.3-0.5,6.4-1.4,9.4c-0.9,3-2.4,5.7-4.4,8.1c-2,2.4-4.4,4.2-7.4,5.6
				C179.3,294,175.8,294.7,171.8,294.7z"/>
			<path class="st1" d="M218.6,285.1h27.3c0,0,0,0,0,0v7.9c0,0,0,0,0,0H210c0,0,0,0,0,0v-63.9c0,0,0,0,0,0h8.5c0,0,0,0,0,0
				L218.6,285.1C218.6,285.1,218.6,285.1,218.6,285.1z"/>
			<path class="st1" d="M312,285.1h32c0,0,0,0,0,0v7.9c0,0,0,0,0,0h-40.6c0,0,0,0,0,0v-63.9c0,0,0,0,0,0h39.3c0,0,0,0,0,0v7.8
				c0,0,0,0,0,0H312c0,0,0,0,0,0v19.1c0,0,0,0,0,0h28.9c0,0,0,0,0,0v7.7c0,0,0,0,0,0H312c0,0,0,0,0,0L312,285.1
				C312,285.1,312,285.1,312,285.1z"/>
		</g>
	</g>
	<g>
		<g>
			<path class="st1" d="M117,213.2h0.1l11.3-29.7h8.3v38.6h-5.4v-32.3h-0.1l-12.7,32.3h-3.4l-12.7-32.3h-0.1v32.3h-5.2v-38.6h8.3
				L117,213.2z"/>
			<path class="st1" d="M151.5,222.1h-5.4v-38.6h5.4V222.1z"/>
			<path class="st1" d="M193.7,216.2c-1.5,2.1-3.5,3.7-5.9,5c-2.4,1.3-5.3,1.9-8.7,1.9c-2.9,0-5.6-0.5-8.1-1.5
				c-2.5-1-4.6-2.4-6.4-4.2c-1.8-1.8-3.2-3.9-4.2-6.4c-1-2.5-1.5-5.2-1.5-8.2c0-3,0.5-5.8,1.5-8.3c1-2.5,2.5-4.6,4.3-6.4
				c1.8-1.8,4-3.1,6.5-4.1c2.5-1,5.2-1.5,8.1-1.5c1.3,0,2.6,0.1,4,0.4c1.3,0.3,2.6,0.6,3.8,1.1c1.2,0.5,2.3,1.1,3.4,1.9
				c1,0.7,1.9,1.6,2.6,2.6l-4.2,3.3c-0.9-1.3-2.3-2.4-4-3.2c-1.7-0.8-3.6-1.3-5.6-1.3c-2.2,0-4.2,0.4-6,1.2
				c-1.8,0.8-3.3,1.9-4.6,3.4c-1.3,1.4-2.2,3.1-2.9,4.9c-0.7,1.9-1,3.9-1,6c0,2.2,0.3,4.2,1,6.1c0.7,1.9,1.6,3.5,2.9,4.9
				c1.2,1.4,2.8,2.5,4.6,3.3c1.8,0.8,3.8,1.2,6,1.2c2.2,0,4.1-0.4,5.9-1.3c1.8-0.9,3.2-2.1,4.4-3.8L193.7,216.2z"/>
			<path class="st1" d="M204.5,222.1h-5.4v-38.6h12.3c1.8,0,3.6,0.2,5.3,0.6c1.7,0.4,3.1,1,4.4,1.8c1.2,0.8,2.2,1.9,3,3.3
				c0.7,1.4,1.1,3,1.1,5c0,2.8-0.9,5.1-2.6,6.9c-1.7,1.7-4,2.9-6.7,3.3l10.7,17.7H220l-9.7-17.2h-5.7L204.5,222.1L204.5,222.1z
				 M204.5,200.5h6.2c1.3,0,2.4-0.1,3.5-0.3c1.1-0.2,2-0.6,2.8-1.1c0.8-0.5,1.4-1.1,1.9-1.9c0.5-0.8,0.7-1.8,0.7-2.9
				c0-1.2-0.2-2.1-0.7-2.9s-1.1-1.4-1.9-1.9s-1.7-0.8-2.7-1c-1-0.2-2.1-0.3-3.3-0.3h-6.6L204.5,200.5L204.5,200.5z"/>
			<path class="st1" d="M271.1,202.8c0,3-0.5,5.7-1.5,8.2c-1,2.5-2.5,4.6-4.2,6.4c-1.8,1.8-4,3.2-6.4,4.2c-2.5,1-5.2,1.5-8.1,1.5
				s-5.6-0.5-8.1-1.5c-2.5-1-4.6-2.4-6.4-4.2c-1.8-1.8-3.2-3.9-4.2-6.4c-1-2.5-1.5-5.2-1.5-8.2c0-3,0.5-5.8,1.5-8.3
				c1-2.5,2.4-4.6,4.2-6.4c1.8-1.8,3.9-3.1,6.4-4.1c2.5-1,5.2-1.5,8.1-1.5s5.6,0.5,8.1,1.5c2.5,1,4.6,2.4,6.4,4.1
				c1.8,1.8,3.2,3.9,4.2,6.4C270.6,197,271.1,199.8,271.1,202.8z M265.3,202.8c0-2.1-0.3-4.1-1-6s-1.7-3.5-2.9-4.9
				c-1.3-1.4-2.8-2.5-4.6-3.4c-1.8-0.8-3.8-1.2-6-1.2c-2.2,0-4.2,0.4-6,1.2c-1.8,0.8-3.3,1.9-4.6,3.4c-1.2,1.4-2.2,3.1-2.9,4.9
				s-1,3.9-1,6c0,2.1,0.3,4.2,1,6c0.7,1.9,1.7,3.5,2.9,4.9c1.3,1.4,2.8,2.5,4.6,3.3c1.8,0.8,3.8,1.2,6,1.2s4.2-0.4,6-1.2
				c1.8-0.8,3.3-1.9,4.6-3.3c1.3-1.4,2.2-3,2.9-4.9C265,207,265.3,204.9,265.3,202.8z"/>
		</g>
	</g>
	<g>
		
			<linearGradient id="SVGID_1_" gradientUnits="userSpaceOnUse" x1="380.2177" y1="84.0675" x2="168.384" y2="391.364" gradientTransform="matrix(1 0 0 -1 0 512)">
			<stop  offset="0.2325" style="stop-color:#AD64B3"/>
			<stop  offset="0.8202" style="stop-color:#E1CECC"/>
		</linearGradient>
		<path class="st2" d="M55.7,202.9c-3,17.7-4.2,35.7-3,53.6l0.4,6.7l0.7,6.7l0.4,3.3c0.1,1.1,0.3,2.2,0.5,3.3l1,6.6
			c0.4,2.2,0.9,4.4,1.3,6.5c0.5,2.2,0.8,4.4,1.4,6.5l1.7,6.5l0.4,1.6l0.5,1.6l1,3.2c2.5,8.5,5.7,16.8,9.2,25l2.8,6
			c0.5,1,0.9,2,1.4,3l1.5,2.9c1,2,2,3.9,3.1,5.9l3.4,5.7c0.6,0.9,1.1,1.9,1.7,2.9l1.8,2.8l3.6,5.6l3.8,5.4l1.9,2.7l2,2.6l4.1,5.2
			l4.3,5l2.2,2.5l2.3,2.4l4.6,4.8l4.8,4.6l2.4,2.3l2.5,2.2l5,4.3l5.2,4.1l2.6,2c0.9,0.7,1.8,1.3,2.7,1.9l5.4,3.8
			c1.8,1.2,3.7,2.4,5.5,3.6l2.8,1.8c0.9,0.6,1.9,1.1,2.9,1.7l5.7,3.3c1.9,1,3.9,2,5.9,3c3.9,2.1,8,3.7,12,5.5c2,0.9,4.1,1.6,6.1,2.4
			c2.1,0.8,4.1,1.6,6.2,2.3l6.3,2l1.6,0.5l1.6,0.4l3.2,0.8c8.5,2.4,17.1,3.9,25.8,5.3l6.5,0.7l3.3,0.4c1.1,0.1,2.2,0.1,3.3,0.2
			l6.6,0.4c2.2,0.1,4.4,0,6.6,0.1c17.5,0.1,35-2.5,51.9-7.2c33.8-9.4,65-28,89.5-53.1c12.5-12.4,23.1-26.6,32-41.8l0.8-1.4l0.8-1.4
			l1.6-2.9l1.6-2.9c0.5-1,1.1-1.9,1.5-2.9c1.9-4,3.9-7.9,5.6-12c0.9-2,1.8-4,2.6-6.1l2.3-6.2l1.2-3.1c0.3-1,0.7-2.1,1-3.1l2-6.3
			c9.9-33.9,11.9-70.2,5.3-105.2c-3.1-17.5-8.7-34.6-16.1-50.8l-2.8-6.1c-1-2-2.1-4-3.1-5.9l-1.6-3c-0.5-1-1-2-1.6-2.9l-3.4-5.8
			l-1.7-2.9c-0.6-0.9-1.2-1.9-1.8-2.8l-3.7-5.6l-0.9-1.4l-1-1.4l-2-2.7l-4-5.4c23.7,27,40.6,60.3,48.5,95.8
			c3.9,17.7,5.7,36,5.2,54.2l-0.1,3.4c0,1.1,0,2.3-0.1,3.4l-0.5,6.8c-0.3,4.6-1,9.1-1.6,13.6l-0.5,3.4c-0.2,1.1-0.4,2.2-0.6,3.4
			l-1.3,6.7l-0.3,1.7l-0.4,1.7l-0.8,3.3c-0.6,2.2-1,4.5-1.7,6.6c-4.9,17.6-11.7,34.7-20.8,50.7c-9.1,15.9-20,30.8-32.8,44
			c-25.5,26.5-58.1,46-93.5,56.1c-17.8,4.8-36.2,7.5-54.6,7.3c-2.3,0-4.6,0-6.9-0.1l-6.9-0.4c-1.1-0.1-2.3-0.1-3.4-0.2l-3.4-0.4
			l-6.9-0.8c-9.1-1.4-18.1-3.1-27-5.7c-35.5-9.9-67.9-29.7-93.1-56.2c-25.2-26.5-43.6-59.3-52.9-94.4l-0.9-3.3l-0.4-1.6l-0.4-1.7
			l-1.4-6.7c-0.5-2.2-0.8-4.5-1.2-6.7c-0.4-2.2-0.8-4.5-1.1-6.7l-0.8-6.7c-0.1-1.1-0.3-2.2-0.4-3.4l-0.2-3.4l-0.5-6.8l-0.1-6.8
			l-0.1-3.4c0-1.1,0-2.3,0.1-3.4l0.2-6.8c0-1.1,0.1-2.3,0.2-3.4l0.3-3.4l0.3-3.4c0.1-1.1,0.2-2.2,0.3-3.4l0.9-6.7
			c0.2-1.1,0.3-2.2,0.5-3.3l0.6-3.3l1.2-6.6C54.7,207.3,55.2,205.1,55.7,202.9z"/>
	</g>
	<g>
		<path class="st1" d="M98.3,171.2v-8.1h1.2l3.5,5.9h-0.6l3.5-5.9h1.2l0,8.1h-1.4v-5.8h0.3l-2.9,4.9h-0.7l-3-4.9h0.3v5.8H98.3z"/>
		<path class="st1" d="M109.3,171.2v-8.1h1.5v8.1H109.3z"/>
		<path class="st1" d="M116.7,171.3c-0.6,0-1.2-0.1-1.7-0.3s-1-0.5-1.4-0.9c-0.4-0.4-0.7-0.8-0.9-1.3c-0.2-0.5-0.3-1.1-0.3-1.7
			s0.1-1.2,0.3-1.7c0.2-0.5,0.5-0.9,0.9-1.3c0.4-0.4,0.8-0.7,1.4-0.9c0.5-0.2,1.1-0.3,1.7-0.3c0.7,0,1.3,0.1,1.8,0.3
			c0.5,0.2,1,0.6,1.4,1l-1,0.9c-0.3-0.3-0.6-0.6-1-0.7c-0.4-0.2-0.8-0.2-1.2-0.2c-0.4,0-0.8,0.1-1.2,0.2c-0.3,0.1-0.7,0.3-0.9,0.6
			c-0.3,0.3-0.5,0.6-0.6,0.9c-0.1,0.3-0.2,0.7-0.2,1.1c0,0.4,0.1,0.8,0.2,1.1s0.3,0.6,0.6,0.9c0.3,0.3,0.6,0.4,0.9,0.6
			c0.3,0.1,0.7,0.2,1.2,0.2c0.4,0,0.8-0.1,1.2-0.2c0.4-0.2,0.7-0.4,1-0.7l1,0.9c-0.4,0.4-0.8,0.8-1.4,1
			C118,171.2,117.4,171.3,116.7,171.3z"/>
		<path class="st1" d="M121.3,171.2v-8.1h3.3c0.7,0,1.3,0.1,1.8,0.3c0.5,0.2,0.9,0.6,1.2,1c0.3,0.4,0.4,0.9,0.4,1.5
			c0,0.6-0.1,1.1-0.4,1.5c-0.3,0.4-0.7,0.8-1.2,1c-0.5,0.2-1.1,0.3-1.8,0.3h-2.5l0.7-0.7v3L121.3,171.2L121.3,171.2z M122.8,168.3
			l-0.7-0.7h2.4c0.7,0,1.2-0.1,1.5-0.4c0.3-0.3,0.5-0.7,0.5-1.2s-0.2-0.9-0.5-1.2s-0.8-0.4-1.5-0.4h-2.4l0.7-0.7V168.3z
			 M126.6,171.2l-2-2.9h1.6l2,2.9H126.6z"/>
		<path class="st1" d="M133.5,171.3c-0.6,0-1.2-0.1-1.7-0.3c-0.5-0.2-1-0.5-1.4-0.9c-0.4-0.4-0.7-0.8-0.9-1.3
			c-0.2-0.5-0.3-1-0.3-1.6c0-0.6,0.1-1.2,0.3-1.7c0.2-0.5,0.5-0.9,0.9-1.3c0.4-0.4,0.8-0.7,1.4-0.9c0.5-0.2,1.1-0.3,1.7-0.3
			c0.6,0,1.2,0.1,1.7,0.3s1,0.5,1.4,0.9s0.7,0.8,0.9,1.3c0.2,0.5,0.3,1.1,0.3,1.7c0,0.6-0.1,1.2-0.3,1.7c-0.2,0.5-0.5,0.9-0.9,1.3
			c-0.4,0.4-0.8,0.7-1.4,0.9C134.7,171.2,134.1,171.3,133.5,171.3z M133.5,170c0.4,0,0.8-0.1,1.1-0.2c0.3-0.1,0.6-0.3,0.9-0.6
			c0.3-0.3,0.4-0.6,0.6-0.9s0.2-0.7,0.2-1.1c0-0.4-0.1-0.8-0.2-1.1c-0.1-0.3-0.3-0.6-0.6-0.9c-0.3-0.3-0.6-0.4-0.9-0.6
			c-0.3-0.1-0.7-0.2-1.1-0.2c-0.4,0-0.8,0.1-1.1,0.2c-0.3,0.1-0.7,0.3-0.9,0.6c-0.3,0.3-0.5,0.6-0.6,0.9c-0.1,0.3-0.2,0.7-0.2,1.1
			c0,0.4,0.1,0.8,0.2,1.1c0.1,0.3,0.3,0.6,0.6,0.9c0.3,0.3,0.6,0.5,0.9,0.6C132.7,169.9,133.1,170,133.5,170z"/>
		<path class="st1" d="M139.5,171.2v-8.1h3.3c0.7,0,1.3,0.1,1.8,0.3c0.5,0.2,0.9,0.6,1.2,1s0.4,0.9,0.4,1.5c0,0.6-0.1,1.1-0.4,1.5
			c-0.3,0.4-0.7,0.8-1.2,1s-1.1,0.3-1.8,0.3h-2.5l0.7-0.7v3L139.5,171.2L139.5,171.2z M141,168.3l-0.7-0.7h2.4
			c0.7,0,1.2-0.1,1.5-0.4c0.3-0.3,0.5-0.7,0.5-1.2s-0.2-0.9-0.5-1.2c-0.3-0.3-0.8-0.4-1.5-0.4h-2.4l0.7-0.7V168.3z"/>
		<path class="st1" d="M151.2,171.3c-1.1,0-2-0.3-2.6-0.9c-0.6-0.6-0.9-1.5-0.9-2.7v-4.5h1.5v4.5c0,0.8,0.2,1.4,0.5,1.8
			c0.4,0.4,0.9,0.6,1.5,0.6c0.7,0,1.2-0.2,1.5-0.6s0.5-1,0.5-1.8v-4.5h1.5v4.5c0,1.2-0.3,2.1-0.9,2.7
			C153.1,171,152.3,171.3,151.2,171.3z"/>
		<path class="st1" d="M156.8,171.2v-8.1h1.2l5.1,6.2h-0.6v-6.2h1.5v8.1h-1.2l-5-6.2h0.6v6.2H156.8z"/>
		<path class="st1" d="M167.8,171.2v-6.8h-2.7v-1.3h6.8v1.3h-2.7v6.8H167.8z"/>
		<path class="st1" d="M176.4,171.3c-1.1,0-2-0.3-2.6-0.9c-0.6-0.6-0.9-1.5-0.9-2.7v-4.5h1.5v4.5c0,0.8,0.2,1.4,0.5,1.8
			c0.4,0.4,0.9,0.6,1.5,0.6c0.7,0,1.2-0.2,1.5-0.6s0.5-1,0.5-1.8v-4.5h1.5v4.5c0,1.2-0.3,2.1-0.9,2.7
			C178.4,171,177.5,171.3,176.4,171.3z"/>
		<path class="st1" d="M182,171.2v-8.1h3.3c0.7,0,1.3,0.1,1.8,0.3c0.5,0.2,0.9,0.6,1.2,1c0.3,0.4,0.4,0.9,0.4,1.5
			c0,0.6-0.1,1.1-0.4,1.5c-0.3,0.4-0.7,0.8-1.2,1c-0.5,0.2-1.1,0.3-1.8,0.3h-2.5l0.7-0.7v3L182,171.2L182,171.2z M183.5,168.3
			l-0.7-0.7h2.4c0.7,0,1.2-0.1,1.5-0.4c0.3-0.3,0.5-0.7,0.5-1.2s-0.2-0.9-0.5-1.2c-0.3-0.3-0.8-0.4-1.5-0.4h-2.4l0.7-0.7V168.3z
			 M187.3,171.2l-2-2.9h1.6l2,2.9H187.3z"/>
		<path class="st1" d="M189.3,171.2l3.6-8.1h1.5l3.6,8.1h-1.6l-3.1-7.3h0.6l-3.1,7.3H189.3z M191,169.3l0.4-1.2h4.3l0.4,1.2H191z"/>
		<path class="st1" d="M202.3,171.2v-8.1h3.8c1,0,1.7,0.2,2.2,0.6s0.8,0.9,0.8,1.5c0,0.4-0.1,0.8-0.3,1.1c-0.2,0.3-0.5,0.5-0.8,0.7
			c-0.3,0.2-0.7,0.3-1.1,0.3l0.2-0.4c0.5,0,0.9,0.1,1.2,0.3c0.4,0.2,0.6,0.4,0.8,0.7s0.3,0.7,0.3,1.2c0,0.7-0.3,1.2-0.8,1.6
			c-0.5,0.4-1.3,0.6-2.3,0.6L202.3,171.2L202.3,171.2z M203.8,170h2.4c0.6,0,1-0.1,1.3-0.3c0.3-0.2,0.4-0.5,0.4-0.9
			c0-0.4-0.2-0.7-0.4-0.9c-0.3-0.2-0.7-0.3-1.3-0.3h-2.5v-1.2h2.2c0.5,0,0.9-0.1,1.2-0.3c0.3-0.2,0.4-0.5,0.4-0.8
			c0-0.4-0.1-0.7-0.4-0.8c-0.3-0.2-0.7-0.3-1.2-0.3h-2.1V170z"/>
		<path class="st1" d="M211,171.2v-8.1h3.3c0.7,0,1.3,0.1,1.8,0.3c0.5,0.2,0.9,0.6,1.2,1c0.3,0.4,0.4,0.9,0.4,1.5
			c0,0.6-0.1,1.1-0.4,1.5s-0.7,0.8-1.2,1c-0.5,0.2-1.1,0.3-1.8,0.3h-2.5l0.7-0.7v3L211,171.2L211,171.2z M212.5,168.3l-0.7-0.7h2.4
			c0.7,0,1.2-0.1,1.5-0.4s0.5-0.7,0.5-1.2s-0.2-0.9-0.5-1.2s-0.8-0.4-1.5-0.4h-2.4l0.7-0.7V168.3z M216.3,171.2l-2-2.9h1.6l2,2.9
			H216.3z"/>
		<path class="st1" d="M218.3,171.2l3.6-8.1h1.5l3.6,8.1h-1.6l-3.1-7.3h0.6l-3.1,7.3H218.3z M220,169.3l0.4-1.2h4.3l0.4,1.2H220z"/>
		<path class="st1" d="M230.6,171.3c-0.6,0-1.2-0.1-1.8-0.3s-1-0.4-1.4-0.7l0.5-1.2c0.3,0.3,0.7,0.5,1.2,0.6c0.5,0.2,1,0.3,1.5,0.3
			c0.4,0,0.8,0,1-0.1c0.3-0.1,0.5-0.2,0.6-0.4c0.1-0.2,0.2-0.3,0.2-0.5c0-0.2-0.1-0.4-0.3-0.6s-0.4-0.3-0.7-0.4
			c-0.3-0.1-0.6-0.2-0.9-0.2c-0.3-0.1-0.7-0.2-1-0.3c-0.3-0.1-0.7-0.2-0.9-0.4c-0.3-0.2-0.5-0.4-0.7-0.7c-0.2-0.3-0.3-0.6-0.3-1.1
			c0-0.4,0.1-0.8,0.3-1.2c0.2-0.4,0.6-0.7,1.1-0.9c0.5-0.2,1.1-0.3,1.8-0.3c0.5,0,1,0.1,1.4,0.2s0.9,0.3,1.2,0.5l-0.5,1.2
			c-0.4-0.2-0.7-0.4-1.1-0.5c-0.4-0.1-0.8-0.2-1.1-0.2c-0.4,0-0.7,0.1-1,0.2s-0.4,0.2-0.6,0.4c-0.1,0.2-0.2,0.3-0.2,0.5
			c0,0.3,0.1,0.4,0.3,0.6c0.2,0.2,0.4,0.3,0.7,0.3c0.3,0.1,0.6,0.2,0.9,0.2c0.3,0.1,0.7,0.2,1,0.3c0.3,0.1,0.7,0.2,0.9,0.4
			c0.3,0.2,0.5,0.4,0.7,0.7c0.2,0.3,0.3,0.6,0.3,1s-0.1,0.8-0.3,1.2c-0.2,0.4-0.6,0.7-1.1,0.9C231.9,171.2,231.3,171.3,230.6,171.3z
			"/>
		<path class="st1" d="M235.3,171.2v-8.1h1.5v8.1H235.3z"/>
		<path class="st1" d="M239,171.2v-8.1h1.5v6.8h4.2v1.3C244.7,171.2,239,171.2,239,171.2z"/>
		<path class="st1" d="M247.4,169.9h4.6v1.3h-6.1v-8.1h5.9v1.3h-4.4L247.4,169.9L247.4,169.9z M247.3,166.5h4v1.2h-4V166.5z"/>
		<path class="st1" d="M253.6,171.2v-8.1h1.2l5.1,6.2h-0.6v-6.2h1.5v8.1h-1.2l-5-6.2h0.6v6.2H253.6z M258,162.5
			c-0.2,0-0.4,0-0.5-0.1c-0.1-0.1-0.3-0.2-0.4-0.3s-0.2-0.2-0.3-0.3s-0.2-0.1-0.3-0.1c-0.2,0-0.3,0.1-0.4,0.2
			c-0.1,0.1-0.2,0.3-0.2,0.5h-0.8c0-0.5,0.1-0.8,0.4-1.1s0.5-0.4,0.9-0.4c0.2,0,0.4,0,0.5,0.1c0.2,0.1,0.3,0.2,0.4,0.3
			c0.1,0.1,0.2,0.2,0.3,0.3c0.1,0.1,0.2,0.1,0.3,0.1c0.2,0,0.3-0.1,0.4-0.2c0.1-0.1,0.2-0.3,0.2-0.5h0.8c0,0.5-0.1,0.8-0.3,1.1
			C258.7,162.3,258.4,162.5,258,162.5z"/>
		<path class="st1" d="M261.8,171.2l3.6-8.1h1.5l3.6,8.1H269l-3.1-7.3h0.6l-3.1,7.3H261.8z M263.5,169.3l0.4-1.2h4.3l0.4,1.2H263.5z
			"/>
	</g>
</g>
</svg>
